<?xml version="1.0" ?><svg height="147px" version="1.1" viewBox="0 0 256 147" width="256px" xmlns="http://www.w3.org/2000/svg" xmlns:xlink="http://www.w3.org/1999/xlink"><title/><desc/><defs/><g fill="none" fill-rule="evenodd" id="Classic" stroke="none" stroke-width="1"><g fill="#E80000" id="BacktoLife" transform="translate(-5223.000000, -4018.000000)"><g transform="translate(5223.000000, 4018.000000)"><polygon id="Fill-1" points="128.067 125.15352 92.5225 59.1072 85.999 70.1567 128.067 146.4377 170.134 70.1567 163.029699 59.1072"/><polygon id="Fill-2" points="128.06685 -0.00015 99.04485 48.19135 105.03585 59.63985 128.06685 23.03035 150.56435 59.63985 156.68885 47.65885"/><path d="M10.78315,74.54975 C10.78315,74.54975 72.95265,33.41425 128.06665,33.41425 C183.18065,33.41425 245.35015,73.48475 245.35015,74.54975 C245.35015,75.61525 183.04715,115.55275 128.06665,115.55275 C72.95265,115.55275 10.78315,74.54975 10.78315,74.54975 Z M0.00015,74.54975 C0.00015,74.68325 57.37715,127.40025 128.06665,127.40025 C198.75565,127.40025 256.00015,74.54975 256.00015,74.54975 C256.00015,74.54975 198.62315,21.69925 128.06665,21.69925 C57.51015,21.69925 0.00015,74.41725 0.00015,74.54975 Z" id="Fill-3"/></g></g></g></svg>